Coordinates
version=1
nRows=6
nColumns=36
inDegrees=yes

Units are S.I. units (second, meters, Newtons, ...)
If the header above contains a line with 'inDegrees', this indicates whether rotational values are in degrees (yes) or radians (no).

endheader
time	pelvis_tilt	pelvis_list	pelvis_rotation	pelvis_tx	pelvis_ty	pelvis_tz	hip_flexion_r	hip_adduction_r	hip_rotation_r	knee_angle_r	knee_angle_r_beta	ankle_angle_r	subtalar_angle_r	mtp_angle_r	hip_flexion_l	hip_adduction_l	hip_rotation_l	knee_angle_l	knee_angle_l_beta	ankle_angle_l	subtalar_angle_l	mtp_angle_l	lumbar_extension	lumbar_bending	lumbar_rotation	arm_flex_r	arm_add_r	arm_rot_r	elbow_flex_r	pro_sup_r	arm_flex_l	arm_add_l	arm_rot_l	elbow_flex_l	pro_sup_l
      7.03333330	    -16.48176483	     -2.21318387	     -8.80104961	      0.42019126	      0.65769011	     -0.11161274	     71.28731555	    -10.78541629	     -4.39691513	     88.54496857	      1.54540124	     34.57313044	     -7.21139251	     -7.49999987	     73.37083273	    -18.89751885	      4.50698902	     85.65829352	      1.49501925	     34.88318684	     -0.86447664	     -7.49999987	    -29.64629534	      6.59547215	     11.72887798	    100.31007103	      3.15694073	     67.65388224	    126.02378142	     97.92995209	     77.13697779	     16.71842459	      1.07824832	    129.63856594	    100.94670061
      7.05000000	    -16.38712423	     -2.47505399	     -8.81842018	      0.42040471	      0.66508958	     -0.11164843	     70.62069064	    -10.43443567	     -4.75609911	     87.95265067	      1.53506334	     34.49082355	     -7.32795200	     -7.49999987	     72.91832912	    -19.24329717	      4.53009624	     85.11108786	      1.48546871	     34.77298887	     -0.58926910	     -7.49999987	    -29.84936192	      6.55934533	     12.18447133	     99.77370449	      2.67014366	     67.90570736	    125.54553290	     98.17308904	     76.61378067	     16.60017302	      1.75195417	    127.80786457	    101.30883173
      7.06666670	    -16.41624788	     -2.66114249	     -8.86643748	      0.42163414	      0.66960088	     -0.11225472	     69.99581647	    -10.11718213	     -5.07703920	     87.17304695	      1.52145669	     34.32113570	     -7.37225714	     -7.49999987	     72.41095101	    -19.52209035	      4.44183867	     84.36730733	      1.47248729	     34.49809794	     -0.48885624	     -7.49999987	    -29.98984162	      6.44631053	     12.52531817	     99.19819816	      2.04089113	     68.17544884	    126.05294191	    100.31174737	     76.22828997	     16.68933752	      2.69015008	    126.64882622	    104.14582501
      7.08333330	    -16.50148599	     -2.69218113	     -8.94996534	      0.42220134	      0.67244434	     -0.11987236	     69.55583640	    -10.01008540	     -5.29589223	     86.36457755	      1.50734624	     33.97989741	     -7.30223594	     -7.49999987	     71.91631439	    -19.59362797	      4.19407377	     83.61595364	      1.45937370	     34.07788964	     -0.33047313	     -7.49999987	    -30.12349342	      6.70133388	     12.00610084	     98.98304815	      1.83737739	     68.55156239	    126.58325067	    100.37618021	     75.84473625	     16.97489117	      2.81240817	    126.48039838	    104.16779493
      7.10000000	    -16.21660601	     -2.79542117	     -8.95759404	      0.42891056	      0.67435602	     -0.11541371	     68.54575283	     -9.87661714	     -5.48047890	     85.51778607	      1.49256694	     33.81705009	     -7.34354948	     -7.49999987	     70.83380799	    -19.55348895	      4.01316895	     82.74274178	      1.44413328	     33.93964993	     -0.47075626	     -7.49999987	    -30.05719590	      6.85104356	     12.17768121	     98.14962103	      1.51628879	     68.56165816	    126.91313087	    100.45665244	     75.25660486	     17.10141448	      2.80832319	    126.98312302	    104.17457450
      7.11666670	    -15.83280376	     -2.88049068	     -8.95103638	      0.42907639	      0.68211537	     -0.11531336	     67.32072971	     -9.69622523	     -5.61297813	     84.52047330	      1.47516054	     33.57365611	     -7.46818279	     -7.49999987	     69.53501227	    -19.56624137	      3.72945668	     81.73266756	      1.42650416	     33.80791743	     -0.30745157	     -7.49999987	    -30.69264389	      6.90685992	     12.28453704	     97.71825451	      0.94839700	     69.67278163	    127.19813427	    100.10118971	     73.93327788	     17.12622617	      2.75964594	    127.49085977	    103.61074573
